<mxfile host="app.diagrams.net" modified="2021-11-09T06:35:48.613Z" agent="5.0 (Windows NT 10.0; Win64; x64) AppleWebKit/537.36 (KHTML, like Gecko) Chrome/94.0.4606.81 Safari/537.36" etag="bZm1Hf1Xl6oEBab_g32f" version="15.7.0" type="github">
  <diagram name="Page-1" id="c7558073-3199-34d8-9f00-42111426c3f3">
    <mxGraphModel dx="870" dy="1802" grid="1" gridSize="10" guides="1" tooltips="1" connect="1" arrows="1" fold="1" page="1" pageScale="1" pageWidth="826" pageHeight="1169" background="none" math="0" shadow="0">
      <root>
        <mxCell id="0" />
        <mxCell id="1" parent="0" />
        <mxCell id="5" value="MainMenu" style="shape=process;whiteSpace=wrap;align=center;verticalAlign=middle;size=0;fontStyle=1;strokeWidth=3;fillColor=#FFCCCC" parent="1" vertex="1">
          <mxGeometry x="198.49999999999991" y="90" width="400" height="50" as="geometry" />
        </mxCell>
        <mxCell id="9" value="&lt;u&gt;search card&lt;/u&gt;&lt;br&gt;&lt;br&gt;delete card&lt;br&gt;modify card" style="verticalAlign=middle;align=center;overflow=fill;fontSize=12;fontFamily=Helvetica;html=1;rounded=1;fontStyle=1;strokeWidth=3;fillColor=#E6FFCC" parent="1" vertex="1">
          <mxGeometry x="500" y="340" width="110" height="90" as="geometry" />
        </mxCell>
        <mxCell id="10" value="&lt;p style=&quot;margin: 0px ; margin-top: 4px ; text-align: center ; text-decoration: underline&quot;&gt;add new card&lt;/p&gt;" style="verticalAlign=middle;align=center;overflow=fill;fontSize=12;fontFamily=Helvetica;html=1;rounded=1;fontStyle=1;strokeWidth=3;fillColor=#E6FFCC" parent="1" vertex="1">
          <mxGeometry x="179.99999999999991" y="340" width="110" height="90" as="geometry" />
        </mxCell>
        <mxCell id="14" value="modify card" style="whiteSpace=wrap;align=center;verticalAlign=middle;fontStyle=1;strokeWidth=3;fillColor=#FFFFCC" parent="1" vertex="1">
          <mxGeometry x="510" y="569.9999999999999" width="90" height="60" as="geometry" />
        </mxCell>
        <mxCell id="11" value="&lt;p style=&quot;margin: 0px ; margin-top: 4px ; text-align: center ; text-decoration: underline&quot;&gt;display all cards&lt;/p&gt;" style="verticalAlign=middle;align=center;overflow=fill;fontSize=12;fontFamily=Helvetica;html=1;rounded=1;fontStyle=1;strokeWidth=3;fillColor=#E6FFCC" parent="1" vertex="1">
          <mxGeometry x="333.49999999999994" y="340" width="110" height="90" as="geometry" />
        </mxCell>
        <mxCell id="77" value="" style="edgeStyle=elbowEdgeStyle;elbow=horizontal;strokeColor=#990000;strokeWidth=2" parent="1" source="5" target="9" edge="1">
          <mxGeometry width="100" height="100" relative="1" as="geometry">
            <mxPoint x="400" y="590" as="sourcePoint" />
            <mxPoint x="500" y="490" as="targetPoint" />
            <Array as="points">
              <mxPoint x="520" y="220" />
              <mxPoint x="520" y="230" />
              <mxPoint x="560" y="480" />
            </Array>
          </mxGeometry>
        </mxCell>
        <mxCell id="88" value="" style="edgeStyle=elbowEdgeStyle;elbow=horizontal;strokeColor=#990000;strokeWidth=2" parent="1" source="5" target="11" edge="1">
          <mxGeometry width="100" height="100" relative="1" as="geometry">
            <mxPoint x="50" y="500" as="sourcePoint" />
            <mxPoint x="150" y="400" as="targetPoint" />
            <Array as="points">
              <mxPoint x="410" y="235" />
            </Array>
          </mxGeometry>
        </mxCell>
        <mxCell id="89" value="" style="edgeStyle=elbowEdgeStyle;elbow=horizontal;strokeColor=#990000;strokeWidth=2" parent="1" source="11" target="5" edge="1">
          <mxGeometry width="100" height="100" relative="1" as="geometry">
            <mxPoint x="59.999999999999886" y="510" as="sourcePoint" />
            <mxPoint x="159.9999999999999" y="410" as="targetPoint" />
            <Array as="points">
              <mxPoint x="360" y="235" />
            </Array>
          </mxGeometry>
        </mxCell>
        <mxCell id="92" value="" style="edgeStyle=elbowEdgeStyle;elbow=horizontal;strokeColor=#990000;strokeWidth=2" parent="1" source="5" target="10" edge="1">
          <mxGeometry width="100" height="100" relative="1" as="geometry">
            <mxPoint x="30.000000000000114" y="500" as="sourcePoint" />
            <mxPoint x="130.0000000000001" y="400" as="targetPoint" />
            <Array as="points">
              <mxPoint x="260" y="250" />
              <mxPoint x="250" y="470" />
            </Array>
          </mxGeometry>
        </mxCell>
        <mxCell id="93" value="" style="edgeStyle=elbowEdgeStyle;elbow=horizontal;strokeColor=#990000;strokeWidth=2" parent="1" source="10" target="5" edge="1">
          <mxGeometry width="100" height="100" relative="1" as="geometry">
            <mxPoint x="40" y="510" as="sourcePoint" />
            <mxPoint x="140" y="410" as="targetPoint" />
            <Array as="points">
              <mxPoint x="200" y="280" />
              <mxPoint x="230" y="470" />
            </Array>
          </mxGeometry>
        </mxCell>
        <mxCell id="1_X1-0_3StD8lewoILFV-97" value="" style="edgeStyle=elbowEdgeStyle;elbow=horizontal;strokeColor=#990000;strokeWidth=2;exitX=0.683;exitY=-0.025;exitDx=0;exitDy=0;exitPerimeter=0;" edge="1" parent="1" source="14">
          <mxGeometry width="100" height="100" relative="1" as="geometry">
            <mxPoint x="570" y="580" as="sourcePoint" />
            <mxPoint x="570" y="430" as="targetPoint" />
            <Array as="points">
              <mxPoint x="570" y="490" />
              <mxPoint x="570" y="650" />
              <mxPoint x="560" y="420" />
              <mxPoint x="590" y="460" />
              <mxPoint x="610" y="450" />
              <mxPoint x="590" y="700" />
            </Array>
          </mxGeometry>
        </mxCell>
        <mxCell id="1_X1-0_3StD8lewoILFV-100" value="" style="edgeStyle=elbowEdgeStyle;elbow=horizontal;strokeColor=#990000;strokeWidth=2" edge="1" parent="1">
          <mxGeometry width="100" height="100" relative="1" as="geometry">
            <mxPoint x="530" y="430" as="sourcePoint" />
            <mxPoint x="530" y="570" as="targetPoint" />
            <Array as="points">
              <mxPoint x="530" y="450" />
              <mxPoint x="530" y="460" />
              <mxPoint x="570" y="710" />
            </Array>
          </mxGeometry>
        </mxCell>
        <mxCell id="1_X1-0_3StD8lewoILFV-101" value="" style="edgeStyle=elbowEdgeStyle;elbow=horizontal;strokeColor=#990000;strokeWidth=2;exitX=0.683;exitY=-0.025;exitDx=0;exitDy=0;exitPerimeter=0;entryX=0.953;entryY=1.06;entryDx=0;entryDy=0;entryPerimeter=0;" edge="1" parent="1" target="5">
          <mxGeometry width="100" height="100" relative="1" as="geometry">
            <mxPoint x="581.47" y="340" as="sourcePoint" />
            <mxPoint x="580" y="201.5" as="targetPoint" />
            <Array as="points">
              <mxPoint x="580" y="261.5" />
              <mxPoint x="580" y="421.5" />
              <mxPoint x="570" y="191.5" />
              <mxPoint x="600" y="231.5" />
              <mxPoint x="620" y="221.5" />
              <mxPoint x="600" y="471.5" />
            </Array>
          </mxGeometry>
        </mxCell>
        <mxCell id="1_X1-0_3StD8lewoILFV-102" value="main" style="ellipse;whiteSpace=wrap;html=1;aspect=fixed;fillColor=#ffe6cc;strokeColor=default;strokeWidth=3;" vertex="1" parent="1">
          <mxGeometry x="358.5" y="-70" width="80" height="80" as="geometry" />
        </mxCell>
      </root>
    </mxGraphModel>
  </diagram>
</mxfile>
